<svg xmlns="http://www.w3.org/2000/svg" viewBox="0 0 232.23 33.3"><defs><style>.cls-1{fill:#fff;}</style></defs><title>Asset 1</title><g id="Layer_2" data-name="Layer 2"><g id="Layer_1-2" data-name="Layer 1"><path class="cls-1" d="M49.83,19.08,52.44,16a9.2,9.2,0,0,0,6,2.44c1.8,0,2.89-.72,2.89-1.89v-.06c0-1.12-.69-1.69-4-2.55-4-1-6.65-2.15-6.65-6.14V7.69c0-3.64,2.93-6.05,7-6.05A11.62,11.62,0,0,1,65.12,4.2L62.82,7.52a9.42,9.42,0,0,0-5.22-2c-1.69,0-2.58.77-2.58,1.75v.06c0,1.32.86,1.75,4.33,2.64,4.07,1.06,6.36,2.52,6.36,6v.06c0,4-3,6.22-7.37,6.22a12.77,12.77,0,0,1-8.51-3.21"/><path class="cls-1" d="M74.57,1.79h4.07L87.25,22H82.63L80.8,17.5H72.31L70.47,22H66ZM79.22,13.6,76.55,7.09,73.89,13.6Z"/><polygon class="cls-1" points="88.91 1.93 104.19 1.93 104.19 5.94 93.32 5.94 93.32 10.22 102.9 10.22 102.9 14.23 93.32 14.23 93.32 22 88.91 22 88.91 1.93"/><polygon class="cls-1" points="106.28 1.93 121.41 1.93 121.41 5.86 110.66 5.86 110.66 9.93 120.12 9.93 120.12 13.86 110.66 13.86 110.66 18.07 121.56 18.07 121.56 22 106.28 22 106.28 1.93"/><path class="cls-1" d="M123.33,19.08l.66-.72a10.27,10.27,0,0,0,7.39,3c3.47,0,5.74-1.89,5.74-4.41v-.06c0-2.35-1.35-3.61-6.19-4.62s-6.82-2.52-6.82-5.42V6.83c0-2.87,2.72-5.19,6.51-5.19A10.59,10.59,0,0,1,137.44,4l-.6.77a9.85,9.85,0,0,0-6.28-2.24c-3.3,0-5.48,2-5.48,4.22V6.8c0,2.32,1.35,3.61,6.22,4.62s6.8,2.61,6.8,5.42v.06c0,3.1-2.67,5.39-6.76,5.39a11.38,11.38,0,0,1-8-3.21"/><path class="cls-1" d="M141.25,13.34V1.93h1V13.28c0,5.33,2.87,8.14,7.22,8.14s7.14-2.7,7.14-8.09V1.93h1V13.26c0,6-3.3,9.06-8.14,9.06s-8.17-3-8.17-9"/><path class="cls-1" d="M161.77,1.93h8.29a8,8,0,0,1,5.73,1.92,5.26,5.26,0,0,1,1.46,3.73v.06c0,3.38-2.61,5.36-6.31,5.68L177.63,22h-1.23l-6.54-8.57h-7.11V22h-1Zm8,10.61c4.13,0,6.48-2,6.48-4.84V7.64c0-3-2.32-4.82-6.28-4.82h-7.25v9.72Z"/><polygon class="cls-1" points="181.09 1.93 195.08 1.93 195.08 2.82 182.07 2.82 182.07 11.71 193.82 11.71 193.82 12.6 182.07 12.6 182.07 22 181.09 22 181.09 1.93"/><polygon class="cls-1" points="197.92 1.93 212.05 1.93 212.05 2.82 198.89 2.82 198.89 11.45 210.79 11.45 210.79 12.34 198.89 12.34 198.89 21.11 212.2 21.11 212.2 22 197.92 22 197.92 1.93"/><path class="cls-1" d="M215.54,1.93h8.29a8,8,0,0,1,5.73,1.92A5.27,5.27,0,0,1,231,7.58v.06c0,3.38-2.61,5.36-6.31,5.68L231.4,22h-1.23l-6.53-8.57h-7.11V22h-1Zm8,10.61c4.13,0,6.48-2,6.48-4.84V7.64c0-3-2.32-4.82-6.28-4.82h-7.25v9.72Z"/><path class="cls-1" d="M51.47,32.53l.35-.39a2.45,2.45,0,0,0,1.72.67c.67,0,1.12-.34,1.12-.81v0c0-.44-.25-.7-1.3-.91s-1.68-.59-1.68-1.38h0c0-.75.69-1.3,1.65-1.3a2.69,2.69,0,0,1,1.76.59l-.33.42a2.27,2.27,0,0,0-1.45-.52c-.65,0-1.07.34-1.07.77h0c0,.45.26.7,1.36.93s1.63.62,1.63,1.35h0c0,.82-.72,1.35-1.71,1.35a3,3,0,0,1-2-.76"/><path class="cls-1" d="M59.36,31.22V28.45h.57v2.74a1.44,1.44,0,0,0,1.53,1.61A1.4,1.4,0,0,0,63,31.22V28.45h.57v2.74a2.09,2.09,0,1,1-4.18,0"/><path class="cls-1" d="M67.92,28.45H69.8c1.13,0,1.88.57,1.88,1.51h0c0,1-.9,1.56-2,1.56H68.49v1.68h-.57ZM69.73,31c.83,0,1.38-.42,1.38-1.05v0c0-.68-.54-1-1.35-1H68.49V31Z"/><path class="cls-1" d="M75.75,28.45h1.88c1.13,0,1.88.57,1.88,1.51h0c0,1-.9,1.56-2,1.56H76.32v1.68h-.57ZM77.56,31c.83,0,1.38-.42,1.38-1.05v0c0-.68-.54-1-1.35-1H76.32V31Z"/><path class="cls-1" d="M83.36,30.85h0a2.56,2.56,0,0,1,5.12,0h0a2.56,2.56,0,0,1-5.12,0m4.53,0h0a1.94,1.94,0,0,0-2-2,1.92,1.92,0,0,0-2,2h0a1.94,1.94,0,0,0,2,2,1.92,1.92,0,0,0,2-2"/><path class="cls-1" d="M92.72,28.45h2.16a2,2,0,0,1,1.43.48,1.29,1.29,0,0,1,.39.94h0a1.43,1.43,0,0,1-1.36,1.39l1.54,2h-.7l-1.45-1.85H93.29v1.85h-.57Zm2.11,2.43c.75,0,1.29-.37,1.29-1h0c0-.59-.47-.94-1.28-.94H93.29v1.93Z"/><polygon class="cls-1" points="102.22 28.95 100.54 28.95 100.54 28.45 104.48 28.45 104.48 28.95 102.8 28.95 102.8 33.22 102.22 33.22 102.22 28.95"/><rect class="cls-1" x="108.64" y="28.45" width="0.57" height="4.77"/><polygon class="cls-1" points="113.72 28.45 114.25 28.45 117.41 32.27 117.41 28.45 117.96 28.45 117.96 33.22 117.51 33.22 114.27 29.31 114.27 33.22 113.72 33.22 113.72 28.45"/><path class="cls-1" d="M122.2,30.85h0a2.45,2.45,0,0,1,2.52-2.47,2.72,2.72,0,0,1,1.87.64l-.37.41a2.2,2.2,0,0,0-1.53-.54,1.91,1.91,0,0,0-1.91,2h0a1.89,1.89,0,0,0,2,2,2.44,2.44,0,0,0,1.45-.48V31.16H124.7v-.49h2.07v1.9a3.12,3.12,0,0,1-2,.73,2.4,2.4,0,0,1-2.55-2.46"/><path class="cls-1" d="M136.06,30.85h0a2.56,2.56,0,0,1,5.11,0h0a2.56,2.56,0,0,1-5.11,0m4.53,0h0a1.94,1.94,0,0,0-2-2,1.92,1.92,0,0,0-2,2h0a1.94,1.94,0,0,0,2,2,1.92,1.92,0,0,0,2-2"/><polygon class="cls-1" points="145.42 28.45 145.95 28.45 149.11 32.27 149.11 28.45 149.66 28.45 149.66 33.22 149.21 33.22 145.97 29.31 145.97 33.22 145.42 33.22 145.42 28.45"/><polygon class="cls-1" points="154.13 28.45 154.7 28.45 154.7 32.72 157.52 32.72 157.52 33.22 154.13 33.22 154.13 28.45"/><rect class="cls-1" x="161.66" y="28.45" width="0.56" height="4.77"/><polygon class="cls-1" points="166.74 28.45 167.27 28.45 170.43 32.27 170.43 28.45 170.99 28.45 170.99 33.22 170.53 33.22 167.29 29.31 167.29 33.22 166.74 33.22 166.74 28.45"/><polygon class="cls-1" points="175.45 28.45 179.08 28.45 179.08 28.94 176.02 28.94 176.02 30.57 178.75 30.57 178.75 31.06 176.02 31.06 176.02 32.73 179.11 32.73 179.11 33.22 175.45 33.22 175.45 28.45"/><path class="cls-1" d="M188.16,32.53l.35-.39a2.45,2.45,0,0,0,1.72.67c.67,0,1.12-.34,1.12-.81v0c0-.44-.25-.7-1.31-.91s-1.68-.59-1.68-1.38h0c0-.75.69-1.3,1.65-1.3a2.7,2.7,0,0,1,1.77.59l-.33.42a2.28,2.28,0,0,0-1.45-.52c-.65,0-1.07.34-1.07.77h0c0,.45.25.7,1.36.93s1.63.62,1.63,1.35h0c0,.82-.71,1.35-1.71,1.35a3,3,0,0,1-2-.76"/><path class="cls-1" d="M197.87,28.41h.53l2.29,4.81h-.61L199.49,32h-2.73l-.59,1.26h-.58Zm1.4,3.06L198.13,29,197,31.48Z"/><polygon class="cls-1" points="204.73 28.45 208.33 28.45 208.33 28.95 205.29 28.95 205.29 30.65 208.01 30.65 208.01 31.14 205.29 31.14 205.29 33.22 204.73 33.22 204.73 28.45"/><polygon class="cls-1" points="212.47 28.45 216.1 28.45 216.1 28.94 213.04 28.94 213.04 30.57 215.77 30.57 215.77 31.06 213.04 31.06 213.04 32.73 216.13 32.73 216.13 33.22 212.47 33.22 212.47 28.45"/><polygon class="cls-1" points="221.64 28.95 219.96 28.95 219.96 28.45 223.9 28.45 223.9 28.95 222.22 28.95 222.22 33.22 221.64 33.22 221.64 28.95"/><polygon class="cls-1" points="229.57 31.33 227.49 28.45 228.18 28.45 229.87 30.84 231.58 28.45 232.23 28.45 230.15 31.32 230.15 33.22 229.57 33.22 229.57 31.33"/><path class="cls-1" d="M35,1.77l.28-.3A.74.74,0,1,0,34.62.8L14.76,22.09l.71.67L26.34,11.11C34,14.83,31.22,19,39,23l8.71-9.34C40.24,9.62,42.9,6,35,1.77"/><path class="cls-1" d="M12.68,1.77l-.28-.3A.73.73,0,1,1,12.92.24a.72.72,0,0,1,.19.56L33,22.09l-.71.67L21.38,11.11C13.7,14.83,16.51,19,8.71,23L0,13.65C7.49,9.62,4.82,6,12.68,1.77"/></g></g></svg>